HIERARCHY
ROOT Hips
{
	OFFSET 0.000000 0.000000 0.000000
	CHANNELS 6 Xposition Yposition Zposition Zrotation Yrotation Xrotation 
	JOINT LHipJoint
	{
		OFFSET 0.000000 0.000000 0.000000
		CHANNELS 3 Zrotation Yrotation Xrotation
		JOINT LeftUpLeg
		{
			OFFSET 1.363060 -1.794630 0.839290
			CHANNELS 3 Zrotation Yrotation Xrotation
			JOINT LeftLeg
			{
				OFFSET 2.448110 -6.726130 0.000000
				CHANNELS 3 Zrotation Yrotation Xrotation
				JOINT LeftFoot
				{
					OFFSET 2.562200 -7.039590 0.000000
					CHANNELS 3 Zrotation Yrotation Xrotation
					JOINT LeftToeBase
					{
						OFFSET 0.157640 -0.433110 2.322550
						CHANNELS 3 Zrotation Yrotation Xrotation
						End Site
						{
							OFFSET 0.000000 0.000000 0.000000
						}
					}
				}
			}
		}
	}
	JOINT RHipJoint
	{
		OFFSET 0.000000 0.000000 0.000000
		CHANNELS 3 Zrotation Yrotation Xrotation
		JOINT RightUpLeg
		{
			OFFSET -1.305520 -1.794630 0.839290
			CHANNELS 3 Zrotation Yrotation Xrotation
			JOINT RightLeg
			{
				OFFSET -2.542530 -6.985550 0.000000
				CHANNELS 3 Zrotation Yrotation Xrotation
				JOINT RightFoot
				{
					OFFSET -2.568260 -7.056230 0.000000
					CHANNELS 3 Zrotation Yrotation Xrotation
					JOINT RightToeBase
					{
						OFFSET -0.164730 -0.452590 2.363150
						CHANNELS 3 Zrotation Yrotation Xrotation
						End Site
						{
							OFFSET 0.000000 0.000000 0.000000
						}
					}
				}
			}
		}
	}
}
MOTION
Frames: 22
Frame Time: 0.008333
5.305494 17.349891 1.155149 -177.816217 -55.415553 -171.716880 -12.054969 3.195806 -2.713445 -9.290032 35.588628 -14.942463 -3.481743 -0.818481 0.914432 1.656618 12.278357 -3.037981 0.903600 -0.000000 -24.333800 8.401820 -1.316041 5.996549 3.003664 13.605459 -14.997552 3.588085 1.552220 -1.140693 1.903132 12.225451 6.706629 2.231000 0.000000 -42.361801
5.307977 17.350398 1.152183 -177.852447 -55.294051 -171.633581 -12.035528 3.162567 -2.745183 -9.354765 35.640414 -15.049436 -3.481976 -0.819192 1.052357 1.676536 12.420468 -3.087018 0.905900 -0.000000 -24.280500 8.405996 -1.330500 6.019475 2.971678 13.663792 -15.122342 3.582629 1.533645 -1.100762 1.912379 12.361372 6.735244 2.272800 0.000000 -42.340100
5.310431 17.351153 1.149257 -177.870770 -55.211847 -171.570493 -12.016755 3.129277 -2.774058 -9.402264 35.675434 -15.133082 -3.479916 -0.821610 1.155737 1.693549 12.544766 -3.117130 0.910901 0.000000 -24.228300 8.410835 -1.344719 6.038527 2.950274 13.715454 -15.218760 3.577365 1.517706 -1.087008 1.918854 12.464545 6.770368 2.307801 0.000000 -42.295300
5.313007 17.352001 1.146542 -177.870598 -55.177951 -171.531541 -11.998540 3.095638 -2.799949 -9.426778 35.683644 -15.188052 -3.474622 -0.824939 1.231275 1.708154 12.652656 -3.134217 0.917600 0.000000 -24.179600 8.416690 -1.357550 6.050652 2.940559 13.757439 -15.276455 3.572059 1.504907 -1.103520 1.921804 12.527492 6.809766 2.333700 0.000000 -42.230200
5.315968 17.352803 1.144179 -177.853960 -55.199379 -171.519561 -11.980596 3.061514 -2.822393 -9.424723 35.655899 -15.210945 -3.465261 -0.828446 1.285348 1.720908 12.746179 -3.143181 0.925099 -0.000000 -24.136500 8.424058 -1.367915 6.053085 2.943550 13.785291 -15.289235 3.566445 1.495323 -1.150052 1.920764 12.546089 6.850556 2.349100 -0.000000 -42.146400
5.319403 17.353493 1.142282 -177.820712 -55.280316 -171.535371 -11.962867 3.027107 -2.840511 -9.394840 35.585954 -15.201408 -3.451447 -0.831648 1.322882 1.732168 12.826431 -3.147457 0.932700 0.000000 -24.102000 8.433239 -1.375265 6.044147 2.959465 13.794673 -15.255302 3.560420 1.488932 -1.224361 1.915590 12.519195 6.890840 2.353100 0.000001 -42.049400
5.323107 17.353992 1.140687 -177.772334 -55.421753 -171.573764 -11.945153 2.992625 -2.852998 -9.341772 35.471909 -15.167457 -3.433801 -0.834314 1.348951 1.741914 12.891692 -3.150510 0.939500 -0.000000 -24.078200 8.443939 -1.379450 6.024554 2.987276 13.784009 -15.181121 3.554049 1.485922 -1.323370 1.906390 12.447562 6.927053 2.345099 -0.000000 -41.935300
5.327388 17.354299 1.139487 -177.712813 -55.622537 -171.635069 -11.927427 2.958678 -2.859432 -9.266974 35.315630 -15.109901 -3.412563 -0.836254 1.364816 1.749909 12.940962 -3.151299 0.945700 0.000001 -24.067900 8.456578 -1.380584 5.993752 3.027053 13.748152 -15.069777 3.547217 1.485503 -1.440049 1.893589 12.336555 6.959466 2.326500 -0.000001 -41.818699
5.331702 17.354411 1.138357 -177.642941 -55.878045 -171.708804 -11.909707 2.925945 -2.858062 -9.181133 35.122784 -15.043062 -3.389429 -0.837913 1.371935 1.755604 12.970115 -3.150508 0.950800 0.000000 -24.071800 8.470400 -1.379661 5.955239 3.075851 13.687017 -14.936875 3.540205 1.487732 -1.568423 1.877887 12.192918 6.984526 2.298300 -0.000001 -41.691200
5.336131 17.354431 1.137309 -177.565830 -56.182240 -171.794232 -11.892413 2.895144 -2.849014 -9.087029 34.902984 -14.968936 -3.365332 -0.839542 1.368277 1.758157 12.975459 -3.144354 0.955300 0.000000 -24.091600 8.485326 -1.377730 5.910398 3.133088 13.598739 -14.788015 3.533068 1.491752 -1.701787 1.859998 12.024851 7.003963 2.262700 0.000000 -41.567500
5.340282 17.354377 1.136004 -177.486629 -56.527857 -171.879409 -11.875518 2.866851 -2.830959 -8.996590 34.666165 -14.901877 -3.342271 -0.841965 1.352344 1.756685 12.951877 -3.131355 0.958900 -0.000000 -24.126400 8.500684 -1.376193 5.863538 3.195141 13.483404 -14.640999 3.526011 1.497372 -1.833597 1.840856 11.841996 7.014580 2.221800 0.000000 -41.438900
5.344091 17.354354 1.134423 -177.406712 -56.906973 -171.963418 -11.859741 2.841627 -2.804452 -8.912442 34.424171 -14.842933 -3.321210 -0.845736 1.320507 1.750404 12.896619 -3.107086 0.962400 0.000000 -24.175300 8.516039 -1.376589 5.817052 3.260746 13.342526 -14.501044 3.519168 1.503914 -1.959687 1.821157 11.652075 7.018845 2.177900 0.000000 -41.315800
5.347344 17.354421 1.132432 -177.329789 -57.312250 -172.040381 -11.845458 2.819824 -2.769534 -8.840439 34.187097 -14.797376 -3.303389 -0.851570 1.269953 1.738614 12.806663 -3.068847 0.966000 -0.000001 -24.235800 8.530881 -1.380333 5.773964 3.327527 13.177795 -14.377016 3.512650 1.511031 -2.076699 1.801576 11.462395 7.016561 2.132900 0.000000 -41.196500
5.350050 17.354650 1.130005 -177.258723 -57.736522 -172.108205 -11.833131 2.801604 -2.726827 -8.782498 33.962597 -14.765163 -3.289300 -0.859961 1.198024 1.721117 12.682455 -3.013992 0.970200 -0.000000 -24.304500 8.544826 -1.388545 5.736263 3.393906 12.992383 -14.271645 3.506499 1.518384 -2.183930 1.782549 11.277753 7.009620 2.088400 -0.000000 -41.084201
5.352089 17.355043 1.127134 -177.196092 -58.174594 -172.164167 -11.822909 2.786813 -2.677100 -8.740706 33.756823 -14.747634 -3.279500 -0.871251 1.104157 1.697777 12.523818 -2.942188 0.974700 -0.000000 -24.379300 8.557569 -1.401898 5.705566 3.458330 12.789285 -14.187452 3.500756 1.525899 -2.281544 1.764365 11.101624 6.997325 2.045200 0.000000 -40.973201
5.353432 17.355595 1.123903 -177.141260 -58.621919 -172.209726 -11.815119 2.775250 -2.621485 -8.713287 33.572288 -14.740843 -3.273762 -0.885496 0.988755 1.669010 12.333960 -2.853978 0.979600 -0.000000 -24.457100 8.568899 -1.420777 5.682146 3.520188 12.571938 -14.120781 3.495420 1.533529 -2.371994 1.747029 10.934515 6.981161 2.003801 0.000000 -40.862499
5.354449 17.356298 1.120496 -177.096857 -59.075679 -172.248078 -11.809693 2.766441 -2.561296 -8.696689 33.406251 -14.737987 -3.271051 -0.902375 0.853104 1.635833 12.119970 -2.749672 0.985100 -0.000000 -24.533100 8.578947 -1.444817 5.664998 3.579308 12.344278 -14.064242 3.490222 1.541146 -2.459484 1.730232 10.773581 6.964367 1.963900 -0.000000 -40.756600
5.355152 17.357127 1.117033 -177.061548 -59.534199 -172.281129 -11.806484 2.759809 -2.497758 -8.687795 33.255301 -14.734880 -3.270628 -0.921488 0.700834 1.599249 11.887580 -2.632824 0.990800 0.000000 -24.605700 8.587741 -1.473393 5.653049 3.635400 12.109881 -14.011753 3.485031 1.548965 -2.548113 1.713634 10.615920 6.947167 1.924800 -0.000000 -40.653200
5.355741 17.358007 1.113666 -177.034307 -59.996376 -172.312510 -11.805168 2.754773 -2.432060 -8.682551 33.113539 -14.726262 -3.271353 -0.942164 0.536679 1.560561 11.644466 -2.506836 0.996500 -0.000000 -24.673100 8.595514 -1.505546 5.644527 3.688603 11.871966 -13.955245 3.479607 1.557121 -2.642224 1.696748 10.457103 6.930827 1.885800 0.000000 -40.550400
5.356442 17.358849 1.110534 -177.014649 -60.461644 -172.345135 -11.805290 2.750628 -2.365380 -8.676938 32.973921 -14.707696 -3.272069 -0.963654 0.365805 1.521118 11.398309 -2.376181 1.001900 0.000000 -24.734300 8.602561 -1.539941 5.637313 3.739077 11.633281 -13.887728 3.473691 1.565726 -2.745481 1.679113 10.292941 6.916417 1.845700 -0.000001 -40.448500
5.357369 17.359614 1.107759 -177.000975 -60.929886 -172.381480 -11.806394 2.746854 -2.298550 -8.667848 32.829341 -14.675938 -3.271709 -0.985235 0.193610 1.482213 11.156466 -2.244930 1.006900 -0.000000 -24.789300 8.609136 -1.575378 5.629684 3.786865 11.396600 -13.803727 3.467051 1.574908 -2.860651 1.660289 10.119526 6.904210 1.803700 0.000000 -40.347800
5.358643 17.360250 1.105387 -176.992498 -61.400270 -172.422582 -11.807952 2.742923 -2.232371 -8.653033 32.673806 -14.629580 -3.269441 -1.006231 0.025161 1.444973 10.925376 -2.116995 1.011400 -0.000000 -24.838900 8.615590 -1.610661 5.619968 3.831766 11.163717 -13.699813 3.459433 1.584659 -2.988974 1.639955 9.934082 6.894735 1.759000 0.000000 -40.249100
